Coordinates
version=1
nRows=40
nColumns=38
inDegrees=no

Units are S.I. units (second, meters, Newtons, ...)
If the header above contains a line with 'inDegrees', this indicates whether rotational values are in degrees (yes) or radians (no).

endheader
time	pelvis_tilt	pelvis_list	pelvis_rotation	pelvis_tx	pelvis_ty	pelvis_tz	hip_flexion_r	hip_adduction_r	hip_rotation_r	knee_angle_r	ankle_angle_r	subtalar_angle_r	mtp_angle_r	hip_flexion_l	hip_adduction_l	hip_rotation_l	knee_angle_l	ankle_angle_l	subtalar_angle_l	mtp_angle_l	lumbar_extension	lumbar_bending	lumbar_rotation	arm_flex_r	arm_add_r	arm_rot_r	elbow_flex_r	pro_sup_r	wrist_flex_r	wrist_dev_r	arm_flex_l	arm_add_l	arm_rot_l	elbow_flex_l	pro_sup_l	wrist_flex_l	wrist_dev_l
0.92	0.212754	1.50595	-1.6543	0.770701	0.427689	0.926377	0.462708	-0.0945602	-0.222308	0.201784	0.125319	0	0	-0.34587	0.0305764	-0.0696384	0.279751	0.372642	0	0	-0.0993779	-0.00168209	-0.173498	0.00149418	-0.0868415	-0.171995	0.204259	1.36482	0	0	-0.00936332	-0.482827	0.69298	0.697846	0.749489	0	0
0.93	0.185387	1.51028	-1.6206	0.770143	0.413377	0.925	0.466685	-0.0965611	-0.229569	0.23305	0.124863	0	0	-0.342271	0.0211596	-0.06844	0.30812	0.371449	0	0	-0.0914132	0.00277503	-0.179208	-0.00202462	-0.0878134	-0.171241	0.203095	1.36536	0	0	-0.0161599	-0.483237	0.696689	0.697225	0.74786	0	0
0.94	0.157635	1.51513	-1.58576	0.769631	0.398626	0.923684	0.468312	-0.0985151	-0.238529	0.261139	0.126106	0	0	-0.337164	0.0115502	-0.066554	0.338286	0.367004	0	0	-0.0820083	0.00723958	-0.18576	-0.00707414	-0.0889207	-0.170867	0.202866	1.3661	0	0	-0.0249292	-0.483296	0.699077	0.696868	0.746388	0	0
0.95	0.117357	1.51986	-1.53795	0.769123	0.383537	0.922514	0.466391	-0.0992554	-0.25034	0.281864	0.122021	0	0	-0.330809	0.00114104	-0.0650436	0.370657	0.360138	0	0	-0.0720597	0.0121716	-0.192943	-0.0129478	-0.0902696	-0.171	0.202812	1.36708	0	0	-0.0353034	-0.482827	0.699999	0.696122	0.745149	0	0
0.96	0.0456239	1.52372	-1.45932	0.768431	0.368337	0.921628	0.461499	-0.0975312	-0.265669	0.293787	0.100369	0	0	-0.322936	-0.0107152	-0.0648435	0.406302	0.350072	0	0	-0.0629174	0.0183022	-0.199251	-0.0189331	-0.0916546	-0.171298	0.203046	1.36824	0	0	-0.0457694	-0.481677	0.699755	0.694261	0.743298	0	0
0.97	-0.0986556	1.52628	-1.31122	0.767233	0.353374	0.921229	0.456	-0.0907923	-0.280076	0.299734	0.0600821	0	0	-0.312282	-0.0251939	-0.067875	0.446507	0.334599	0	0	-0.0553524	0.0273321	-0.202283	-0.0231952	-0.0929926	-0.169925	0.201556	1.37016	0	0	-0.0548491	-0.479441	0.699341	0.690421	0.740975	0	0
0.98	-0.324086	1.52737	-1.0869	0.765414	0.338868	0.921319	0.454407	-0.0794927	-0.286068	0.309331	0.0244451	0	0	-0.29629	-0.0417132	-0.0755366	0.49307	0.313018	0	0	-0.0485814	0.0394681	-0.200678	-0.0257174	-0.0945089	-0.168275	0.201096	1.37215	0	0	-0.0625349	-0.475702	0.698358	0.684007	0.737095	0	0
0.99	-0.601476	1.52664	-0.814666	0.763195	0.324738	0.921776	0.459732	-0.0661395	-0.284421	0.329504	0.00808521	0	0	-0.273438	-0.0592383	-0.0868486	0.546906	0.284897	0	0	-0.0410637	0.0534765	-0.195855	-0.0270663	-0.0961076	-0.16742	0.201959	1.37364	0	0	-0.0699303	-0.471158	0.697628	0.677416	0.730927	0	0
1	-0.860821	1.52437	-0.562088	0.761001	0.310852	0.922421	0.471446	-0.0545301	-0.278588	0.361017	0.00422287	0	0	-0.244592	-0.0752323	-0.0977762	0.60704	0.248836	0	0	-0.0327911	0.0667841	-0.19069	-0.0277714	-0.0975869	-0.165609	0.20234	1.3762	0	0	-0.0784954	-0.466735	0.696579	0.673783	0.719226	0	0
1.01	-0.995227	1.5205	-0.433044	0.75921	0.297187	0.92353	0.480064	-0.0462721	-0.271856	0.394655	0.000869821	0	0	-0.216605	-0.0871994	-0.101731	0.668813	0.204977	0	0	-0.0294933	0.0777062	-0.187869	-0.0272953	-0.0988741	-0.163288	0.202833	1.3782	0	0	-0.0877287	-0.464232	0.696694	0.675752	0.701546	0	0
1.02	-1.06303	1.51643	-0.367775	0.757764	0.283784	0.924817	0.484467	-0.0400172	-0.266792	0.425484	-0.00391547	0	0	-0.186592	-0.0970921	-0.0992026	0.733807	0.155431	0	0	-0.0292413	0.0873508	-0.188273	-0.0255799	-0.0997084	-0.161264	0.20238	1.37884	0	0	-0.0971692	-0.463911	0.699264	0.682096	0.681154	0	0
1.03	-1.07679	1.51172	-0.354853	0.756349	0.270652	0.926217	0.481828	-0.0339837	-0.264692	0.448903	-0.00850097	0	0	-0.156078	-0.106586	-0.0942863	0.800215	0.102989	0	0	-0.0325074	0.0962779	-0.189882	-0.0238007	-0.0999614	-0.160139	0.202923	1.37871	0	0	-0.105371	-0.465161	0.703201	0.689522	0.664534	0	0
1.04	-1.12938	1.50787	-0.301843	0.754764	0.257921	0.927161	0.477735	-0.0275562	-0.266609	0.464095	-0.0117714	0	0	-0.118183	-0.116449	-0.0873224	0.870662	0.0481327	0	0	-0.0329154	0.104438	-0.191729	-0.0233896	-0.0997261	-0.15906	0.204885	1.37839	0	0	-0.111979	-0.468613	0.711419	0.698039	0.647468	0	0
1.05	-1.19775	1.50435	-0.232114	0.753146	0.245517	0.927844	0.470679	-0.0210069	-0.27207	0.470575	-0.0133925	0	0	-0.0762594	-0.126295	-0.0796334	0.941039	-0.00819769	0	0	-0.0313788	0.111833	-0.192956	-0.0243975	-0.0994797	-0.158168	0.208125	1.37757	0	0	-0.115728	-0.472997	0.724129	0.704718	0.632878	0	0
1.06	-1.2673	1.50098	-0.160554	0.751626	0.233362	0.928488	0.4608	-0.014597	-0.279504	0.470485	-0.0124905	0	0	-0.0331034	-0.135128	-0.0714387	1.00713	-0.0660086	0	0	-0.0286569	0.118407	-0.193385	-0.0265774	-0.099607	-0.157692	0.212785	1.37677	0	0	-0.116591	-0.477065	0.739916	0.707689	0.622325	0	0
1.07	-1.32691	1.49826	-0.0999573	0.750099	0.221351	0.929274	0.450034	-0.00837123	-0.286339	0.468777	-0.00881471	0	0	0.0081483	-0.141975	-0.0643128	1.06528	-0.126099	0	0	-0.0256587	0.123455	-0.191987	-0.029456	-0.0999687	-0.15841	0.218633	1.37583	0	0	-0.115874	-0.480252	0.755541	0.70788	0.616193	0	0
1.08	-1.36807	1.49607	-0.0594462	0.748468	0.209473	0.930373	0.438719	-0.00179202	-0.290819	0.467735	-0.00266305	0	0	0.0455931	-0.146962	-0.0585813	1.11535	-0.182891	0	0	-0.0238099	0.127293	-0.188695	-0.0322481	-0.100483	-0.159695	0.225045	1.37476	0	0	-0.114947	-0.482677	0.768477	0.706275	0.61461	0	0
1.09	-1.39142	1.49441	-0.0382583	0.746768	0.197794	0.931846	0.427549	0.00475401	-0.292228	0.469121	0.00467376	0	0	0.0801029	-0.149689	-0.053212	1.16175	-0.219497	0	0	-0.0235099	0.130233	-0.184516	-0.034064	-0.101152	-0.16049	0.231294	1.37351	0	0	-0.115264	-0.484014	0.775393	0.704529	0.616463	0	0
1.1	-1.40627	1.49329	-0.0263372	0.745099	0.186316	0.933638	0.416084	0.0109801	-0.289914	0.470714	0.0120621	0	0	0.114022	-0.150757	-0.0482589	1.20822	-0.224309	0	0	-0.0240231	0.132411	-0.180373	-0.0343054	-0.102047	-0.159723	0.235675	1.37158	0	0	-0.117232	-0.483787	0.775482	0.70342	0.620743	0	0
1.11	-1.38477	1.49335	-0.05218	0.743405	0.174942	0.935946	0.400259	0.0168532	-0.284548	0.469234	0.0193854	0	0	0.143879	-0.150178	-0.045806	1.25064	-0.206074	0	0	-0.0278951	0.133051	-0.175729	-0.031908	-0.102886	-0.156023	0.236368	1.3682	0	0	-0.120901	-0.482755	0.769602	0.703321	0.626112	0	0
1.12	-1.33601	1.49479	-0.106849	0.741657	0.163665	0.93863	0.380817	0.0219739	-0.276925	0.464301	0.0266068	0	0	0.170293	-0.14775	-0.0460283	1.28684	-0.1785	0	0	-0.0342837	0.13182	-0.169282	-0.0293469	-0.103534	-0.152475	0.237415	1.36435	0	0	-0.124383	-0.482114	0.764339	0.704441	0.627369	0	0
1.13	-1.27194	1.4974	-0.178035	0.739888	0.152565	0.941528	0.359176	0.0259885	-0.268377	0.455837	0.0323273	0	0	0.194957	-0.143282	-0.0480985	1.31663	-0.150347	0	0	-0.0418976	0.12889	-0.160965	-0.0272286	-0.104094	-0.150319	0.239227	1.36161	0	0	-0.126813	-0.481779	0.76115	0.705954	0.623567	0	0
1.14	-1.2073	1.50007	-0.249032	0.738226	0.141574	0.944465	0.336019	0.0292261	-0.26225	0.443188	0.0366636	0	0	0.219812	-0.137701	-0.0493359	1.34032	-0.126634	0	0	-0.0488242	0.125502	-0.152875	-0.0255002	-0.104623	-0.150336	0.240664	1.36065	0	0	-0.128284	-0.481425	0.759958	0.707001	0.616534	0	0
1.15	-1.15647	1.50264	-0.3058	0.736655	0.130714	0.947254	0.313188	0.0317754	-0.258672	0.428738	0.041509	0	0	0.245876	-0.131713	-0.049798	1.35835	-0.109336	0	0	-0.0541776	0.122434	-0.144479	-0.0246689	-0.105293	-0.154231	0.242994	1.36143	0	0	-0.128632	-0.480935	0.760362	0.70749	0.608878	0	0
1.16	-1.12253	1.50509	-0.346291	0.73513	0.119997	0.94983	0.291591	0.0341838	-0.256992	0.414204	0.0469553	0	0	0.272919	-0.12587	-0.0505222	1.37112	-0.0981664	0	0	-0.058158	0.120134	-0.134987	-0.0250909	-0.106684	-0.159547	0.246921	1.36332	0	0	-0.12807	-0.479751	0.760833	0.706702	0.603114	0	0
1.17	-1.09545	1.5073	-0.380783	0.733607	0.109368	0.952246	0.270411	0.0368047	-0.254646	0.399004	0.0522023	0	0	0.299691	-0.120397	-0.0518354	1.3787	-0.0925234	0	0	-0.0617241	0.118441	-0.124142	-0.0264787	-0.108731	-0.165816	0.251925	1.36638	0	0	-0.126747	-0.478337	0.761775	0.705524	0.599376	0	0
1.18	-1.05387	1.51104	-0.43164	0.730833	0.0986045	0.954537	0.24859	0.0388641	-0.251348	0.381615	0.0565821	0	0	0.326665	-0.128253	-0.0458278	1.37873	-0.0811282	0	0	-0.065281	0.113053	-0.112125	-0.0276328	-0.10933	-0.171844	0.256054	1.37029	0	0	-0.126435	-0.478402	0.76163	0.703396	0.598275	0	0
1.19	-1.01709	1.51232	-0.475542	0.729287	0.0879434	0.956688	0.225105	0.0426017	-0.247764	0.363162	0.06107	0	0	0.350531	-0.123608	-0.0465771	1.37646	-0.0793338	0	0	-0.0688825	0.111705	-0.101836	-0.028075	-0.111812	-0.175657	0.257322	1.37273	0	0	-0.125916	-0.477435	0.7609	0.702766	0.599835	0	0
1.2	-0.967606	1.51355	-0.5325	0.727778	0.0773863	0.958686	0.202287	0.0457031	-0.242322	0.346484	0.064945	0	0	0.372377	-0.118457	-0.0478654	1.36955	-0.0771417	0	0	-0.0732339	0.109827	-0.0912399	-0.0287097	-0.114316	-0.179678	0.259223	1.37551	0	0	-0.125621	-0.476574	0.757688	0.704066	0.602448	0	0
1.21	-0.905773	1.51519	-0.602423	0.726225	0.0669311	0.960474	0.181231	0.0474663	-0.234815	0.333204	0.0693396	0	0	0.392597	-0.112759	-0.0506986	1.35858	-0.0725826	0	0	-0.0779278	0.106821	-0.0805173	-0.0289267	-0.116718	-0.183105	0.261002	1.37823	0	0	-0.12591	-0.476244	0.753228	0.706314	0.606092	0	0
1.22	-0.824071	1.5168	-0.692596	0.72466	0.0565011	0.962103	0.160538	0.0480789	-0.225939	0.321476	0.0741292	0	0	0.410407	-0.106452	-0.0549871	1.34318	-0.0650151	0	0	-0.0832172	0.102704	-0.0702534	-0.0278578	-0.11889	-0.185209	0.260973	1.38033	0	0	-0.126916	-0.476266	0.747922	0.708964	0.610828	0	0
1.23	-0.71973	1.51735	-0.805456	0.723155	0.0461077	0.963671	0.138699	0.048257	-0.216471	0.309532	0.0786657	0	0	0.424777	-0.10007	-0.0595445	1.32325	-0.0540733	0	0	-0.0897584	0.0980551	-0.0604744	-0.0265083	-0.120964	-0.186237	0.261015	1.38205	0	0	-0.127958	-0.476394	0.742387	0.711259	0.61577	0	0
1.24	-0.615832	1.51693	-0.917462	0.721669	0.035754	0.96508	0.116808	0.0482916	-0.207002	0.298143	0.0831309	0	0	0.437517	-0.094487	-0.065032	1.29975	-0.0409721	0	0	-0.0966038	0.0933966	-0.051548	-0.0254882	-0.122873	-0.186932	0.26247	1.38339	0	0	-0.12878	-0.476517	0.737415	0.71278	0.620463	0	0
1.25	-0.554352	1.51494	-0.987432	0.721371	0.0255747	0.966279	0.0952597	0.0474387	-0.200517	0.287303	0.0896145	0	0	0.447674	-0.0771903	-0.0743637	1.27401	-0.0346696	0	0	-0.103039	0.0927213	-0.0436471	-0.0237175	-0.126273	-0.187532	0.263937	1.38434	0	0	-0.129901	-0.475128	0.733213	0.71419	0.624876	0	0
1.26	-0.454469	1.51285	-1.09447	0.719924	0.0152741	0.967353	0.0727169	0.0465574	-0.192014	0.276887	0.0953415	0	0	0.455905	-0.0721991	-0.0794498	1.24196	-0.0208765	0	0	-0.110523	0.0874628	-0.0374533	-0.0216037	-0.127246	-0.188235	0.26485	1.38595	0	0	-0.131189	-0.475446	0.728006	0.714501	0.630193	0	0
1.27	-0.386289	1.51089	-1.16921	0.718544	0.00503338	0.968134	0.0518762	0.0463016	-0.184833	0.26686	0.100928	0	0	0.46412	-0.0691895	-0.0856832	1.20671	-0.00698067	0	0	-0.116683	0.083228	-0.0323521	-0.0197463	-0.12798	-0.190304	0.266569	1.38841	0	0	-0.132293	-0.475521	0.724173	0.713606	0.633791	0	0
1.28	-0.34909	1.50721	-1.21375	0.717006	-0.00534733	0.968769	0.0293101	0.0485149	-0.176451	0.254742	0.105065	0	0	0.469644	-0.0758767	-0.103084	1.16895	0.0077409	0	0	-0.123374	0.0807614	-0.0270068	-0.0181783	-0.128622	-0.191854	0.269098	1.39077	0	0	-0.133579	-0.475793	0.722149	0.712436	0.635529	0	0
1.29	-0.316823	1.505	-1.25155	0.71568	-0.0154863	0.96915	0.00936799	0.0494156	-0.170542	0.245017	0.110621	0	0	0.47459	-0.0748224	-0.111055	1.12614	0.0227752	0	0	-0.128773	0.0778259	-0.0238494	-0.015959	-0.1288	-0.193927	0.271263	1.39235	0	0	-0.13404	-0.476057	0.721396	0.710238	0.636289	0	0
1.3	-0.296909	1.5027	-1.2765	0.71439	-0.0256083	0.969332	-0.010684	0.0509483	-0.165176	0.23485	0.11614	0	0	0.477582	-0.0744775	-0.120393	1.07964	0.0381196	0	0	-0.133961	0.0755101	-0.0213441	-0.0134182	-0.128606	-0.197225	0.272779	1.39412	0	0	-0.134095	-0.476204	0.721629	0.707274	0.637064	0	0
1.31	-0.28798	1.50067	-1.2905	0.713068	-0.0357298	0.969273	-0.0303776	0.0531715	-0.158555	0.223497	0.119736	0	0	0.47895	-0.075284	-0.13249	1.02961	0.0532282	0	0	-0.138573	0.0735411	-0.0188623	-0.0108229	-0.128008	-0.20164	0.273814	1.39712	0	0	-0.133896	-0.47641	0.722347	0.704389	0.637662	0	0
